<mxfile host="app.diagrams.net" modified="2024-02-22T06:33:29.816Z" agent="Mozilla/5.0 (Macintosh; Intel Mac OS X 10_15_7) AppleWebKit/537.36 (KHTML, like Gecko) Chrome/121.0.0.0 Safari/537.36" version="23.1.5" etag="Gzo_g4pQvza7YCSqafoN" type="github">
  <diagram name="第 1 页" id="6GhYlpOtdUbrr685tgYN">
    <mxGraphModel>
      <root>
        <mxCell id="0" />
        <mxCell id="1" parent="0" />
      </root>
    </mxGraphModel>
  </diagram>
</mxfile>
